# xmcd
#
# Track frame offsets:
#       150
#       22399
#       39511
#       58706
#       79380
#       96030
#       109230
#       135509
#       153466
#       173029
#       193239
#       210404
#       225259
#       241627
#       267973
#       289889
#
# Disc length: 4090 seconds
#
# Revision: 0
# Processed by: cddbd v1.5PL3 Copyright (c) Steve Scherf et al.
# Submitted via: WaveLab 4.01
#
DISCID=db0ff810
DTITLE=Abba - Thank you for the muisc
DYEAR=1994
DGENRE=
TTITLE0=Titel 01
TTITLE1=Titel 02
TTITLE2=Titel 03
TTITLE3=Titel 04
TTITLE4=Titel 05
TTITLE5=Titel 06
TTITLE6=Titel 07
TTITLE7=Titel 08
TTITLE8=Titel 09
TTITLE9=Titel 10
TTITLE10=Titel 11
TTITLE11=Titel 12
TTITLE12=Titel 13
TTITLE13=Titel 14
TTITLE14=Titel 15
TTITLE15=Titel 16
EXTD=
EXTT0=
EXTT1=
EXTT2=
EXTT3=
EXTT4=
EXTT5=
EXTT6=
EXTT7=
EXTT8=
EXTT9=
EXTT10=
EXTT11=
EXTT12=
EXTT13=
EXTT14=
EXTT15=
PLAYORDER=
